<?xml version="1.0" encoding="UTF-8"?>
<svg viewBox="-2 -2 900 900" version="1.1" xmlns="http://www.w3.org/2000/svg"
  xmlns:xlink="http://www.w3.org/1999/xlink"
  style="shape-rendering:geometricPrecision; text-rendering:geometricPrecision; image-rendering:optimizeQuality; fill-rule:evenodd; clip-rule:evenodd">
  <path style="opacity:0.994" fill="#efefef"
    d="M 418.5,-0.5 C 437.833,-0.5 457.167,-0.5 476.5,-0.5C 614.597,11.2813 725.43,71.948 809,181.5C 860.289,252.191 889.122,331.191 895.5,418.5C 895.5,437.833 895.5,457.167 895.5,476.5C 883.719,614.597 823.052,725.43 713.5,809C 642.809,860.289 563.809,889.122 476.5,895.5C 457.167,895.5 437.833,895.5 418.5,895.5C 280.403,883.719 169.57,823.052 86,713.5C 34.7111,642.809 5.87781,563.809 -0.5,476.5C -0.5,457.167 -0.5,437.833 -0.5,418.5C 11.2813,280.403 71.948,169.57 181.5,86C 252.191,34.7111 331.191,5.87781 418.5,-0.5 Z M 441.5,26.5 C 567.254,27.6483 673.087,73.6483 759,164.5C 784.409,193.258 805.909,224.758 823.5,259C 572.833,259.667 322.167,259.667 71.5,259C 130.164,147.021 220.497,74.0206 342.5,40C 375.17,31.9596 408.17,27.4596 441.5,26.5 Z M 264.5,826.5 C 263.71,825.599 262.71,824.932 261.5,824.5C 177.769,782.269 114.436,719.436 71.5,636C 322.167,635.333 572.833,635.333 823.5,636C 768.763,740.393 685.429,811.393 573.5,849C 467.622,880.33 364.622,872.83 264.5,826.5 Z" />
  <path style="opacity:0.882" fill="#fcd28d"
    d="M 261.5,824.5 C 262.71,824.932 263.71,825.599 264.5,826.5C 262.821,826.715 261.821,826.048 261.5,824.5 Z" />
</svg> 